<?xml version="1.0" encoding="utf-8"?>
<!-- Generator: Adobe Illustrator 16.0.0, SVG Export Plug-In . SVG Version: 6.00 Build 0)  -->
<!DOCTYPE svg PUBLIC "-//W3C//DTD SVG 1.1//EN" "http://www.w3.org/Graphics/SVG/1.1/DTD/svg11.dtd">
<svg version="1.1" id="Layer_1" xmlns="http://www.w3.org/2000/svg" xmlns:xlink="http://www.w3.org/1999/xlink" x="0px" y="0px"
	 width="283.46px" height="283.46px" viewBox="0 0 283.46 283.46" enable-background="new 0 0 283.46 283.46" xml:space="preserve">
<rect x="0" y="-0.565" width="283.46" height="284.59"/>
<g>
	
		<radialGradient id="SVGID_1_" cx="-1814.5503" cy="-450.3696" r="133.25" gradientTransform="matrix(1 0 0 -1 1956.2803 -308.6396)" gradientUnits="userSpaceOnUse">
		<stop  offset="0.7176" style="stop-color:#FFFFFF"/>
		<stop  offset="1" style="stop-color:#000000;stop-opacity:0"/>
	</radialGradient>
	<circle fill="url(#SVGID_1_)" cx="141.73" cy="141.73" r="133.25"/>
	<circle stroke="#FFFFFF" stroke-miterlimit="10" cx="141.73" cy="141.73" r="91.25"/>
</g>
<g>
	
		<rect x="107.383" y="211.944" transform="matrix(-0.7478 -0.6639 0.6639 -0.7478 100.7083 510.4185)" width="79.827" height="48.275"/>
	<path fill="#FFFFFF" d="M161.116,280.609l-15.025-13.133c-5.005-4.379-10.021-8.748-14.999-13.162l-29.918-26.418
		c-0.154-0.134-0.17-0.371-0.032-0.525l0.001-0.002l31.953-36.186c0.182-0.207,0.496-0.227,0.703-0.045l0.002,0.002l59.561,53.148
		c0.119,0.103,0.132,0.289,0.022,0.405l-0.002,0.004l-8.032,9.005l-8.066,8.977L161.116,280.609z M161.117,280.609l15.889-18.174
		l7.955-9.074l7.988-9.047l0.025,0.408l-59.838-52.836l0.703-0.041l-32.141,36.02l-0.031-0.527l29.778,26.574
		c4.974,4.42,9.905,8.883,14.848,13.336L161.117,280.609z"/>
</g>
<g>
	<g>
		<polyline points="112.208,228.187 151.687,231.109 158.713,269.466 		"/>
		<path fill="#FFFFFF" d="M112.208,228.185c3.299,0.131,6.592,0.326,9.889,0.486l9.879,0.592c3.295,0.181,6.584,0.439,9.875,0.66
			l9.873,0.686c0.231,0.018,0.416,0.189,0.454,0.408l1.712,9.598c0.564,3.202,1.16,6.397,1.688,9.604
			c1.092,6.405,2.168,12.815,3.137,19.245c-1.373-6.353-2.641-12.728-3.889-19.106c-0.644-3.187-1.221-6.385-1.828-9.573
			l-1.801-9.582l0.453,0.405l-9.865-0.771c-3.29-0.271-6.581-0.496-9.866-0.801l-9.858-0.869
			C118.777,228.835,115.492,228.544,112.208,228.185z"/>
	</g>
	<g>
		<polyline points="135.246,202.238 142.828,241.089 181.748,243.517 		"/>
		<path fill="#FFFFFF" d="M135.244,202.238c0.743,3.217,1.424,6.445,2.137,9.666l2.033,9.686c0.689,3.229,1.31,6.47,1.963,9.701
			l1.939,9.703l-0.459-0.402l9.729,0.652c3.241,0.228,6.485,0.416,9.728,0.678c6.48,0.486,12.963,0.988,19.438,1.599
			c-6.498-0.199-12.992-0.506-19.481-0.832c-3.248-0.144-6.49-0.353-9.734-0.535l-9.734-0.563c-0.229-0.012-0.416-0.184-0.459-0.4
			l-1.85-9.723c-0.609-3.241-1.257-6.478-1.828-9.728L136.906,212C136.349,208.744,135.765,205.498,135.244,202.238z"/>
	</g>
</g>
<g>
	<path d="M144.104,179.757l1.194-1c0,0,7.972-1.084,10.888-1.668c2.918-0.582,20.5-6.166,31.668-18.332
		c11.166-12.166,20.25-21.75,23.375-25s13.754-11.977,16.938-13.563c6.744-3.357,15.938,2.125,15.938,2.125s0.282-1.643-2.729-4.438
		c-3.01-2.795-4.469-5.795-4.469-5.795s0.445-6.018-5.117-9.83c-5.562-3.812-12.125-3.375-15.688-2.25
		c-3.563,1.125-7.883,4.643-10.444,6.33s-8.992,3.795-14.242,3.795s-8.604-0.083-10.271-1.791c-1.666-1.709-1.875-8.418-2.75-10.543
		s-5.041-8.416-5.791-10.791s-2.916-13.666-3.584-16c-0.666-2.334-0.998-6.667-2.582-9.084c-1.584-2.416-5.334-7.25-6.75-11.916
		c-1.418-4.666-4.918-17.167-5.584-19.333c-0.668-2.167-2.834-9.417-3.668-7.667c-0.832,1.75-0.748,4.667-2.416,1.833
		c-1.666-2.833-2-5.916-3.166-8.332c-1.166-2.417-1.084-11.582-3.584-10.082s-3.166,3.416-3.75,5.25
		c-0.582,1.834-2.666-4.748-2.166-7.08c0.5-2.334-4.5,0.416-5.25,5.583s-1.084,8.75-1.084,8.75s-4.666-9.75-3.916-14.25
		s-6.75,8.081-6.084,13.414c0.668,5.333-2.916-1.083-3.25-2.667c-0.332-1.583-4.166-1.083-4.25,7.417
		c-0.082,8.5-3,4.084-3.582,2.417c-0.584-1.667-3.5-3.834-3.668,14.333c-0.166,18.166-4.166-6.083-5.082-0.5
		c-0.918,5.584-2.834,12.413-2.668,17.33c0.168,4.917-0.332,2.916-0.832,4.582s-3.084,2.5-3.168,5.083
		c-0.082,2.583,2.916,5.169,2.334,8.919c-0.584,3.75-3.834,2-4.334,5.25s3.334,3.25,2.668,6.5c-0.668,3.25-3.668,2.635-3.668,4.984
		c0,2.349,2.75,3.6,2.418,5.35c-0.334,1.75-2.834,1.833-3,3.583c-0.168,1.75,2.916,3.747,2.666,6.079
		c-0.25,2.334-2.846,1.666-2.674,3.166c0.174,1.5,3.008,1.75,2.84,3.5c-0.166,1.75-2.861,1.831-2.848,3.248
		c0.016,1.417,2.348,1.333,2.098,2.5s-1.916,1.416-1.666,2.498c0.25,1.084,2.084,0.581,2.584,2.414s-3.529,1.166-3.016,3.666
		c0.516,2.5,2.848,1.084,3.182,2.167s-1.084,2.917-0.25,4.75s2.334,0,3.166,1.333c0.834,1.334-0.166,2.998,0.918,4.081
		c1.082,1.083,2.75-0.833,3.25-0.083s0.248,3.334,1.416,4.5c1.166,1.166,3-1.5,4-0.584s0.5,2.666,1.5,3.25s2.582-1.334,3.25-1
		c0.666,0.334,3.584,0.995,5.334,1.661c1.75,0.668,3.416,2.416,3.332,3.832c-0.082,1.418-4.166,4.168-8.582,3.834
		c-4.418-0.334-11.584-3.604-15.334-4.979s-12.5-5.25-16.625-5.25s-3.75,5.25-6.125,7.5s-9.5,7.125-10,10s0,4.25-0.625,6.5
		s-1.75,3.25-2,6.5s-1.625,2.375-2.625,5.375s0.625,4.5,0,6.375s-2.5,2.5-2.875,5.125s0.75,3.625,0,4.75s-2.75,1.5-2.75,4
		s1.5,2.5,1.875,4.875s0.375,4.375,3.25,4.25s6.5-2.25,9.5-4.5s30.5-23,35.625-25.5s9-1.25,11.25-0.125s5.625,2.75,7.875,3.25
		s8.75,1.375,8.75,1.375s-3.375,2-1.875,5.5s3.125,3.75,6.5,3.625s5.5-0.25,8-3.375s4.515-3.5,4.067-6.625
		C144.855,181.009,144.105,179.759,144.104,179.757z"/>
	<path fill="#FFFFFF" d="M144.102,179.763l1.19-1.006h0.004c2.488-0.354,4.976-0.729,7.459-1.121
		c1.238-0.205,2.479-0.422,3.709-0.662c1.216-0.301,2.412-0.694,3.599-1.104c4.737-1.671,9.313-3.791,13.66-6.304
		c4.334-2.524,8.438-5.476,12.026-8.967c1.779-1.754,3.438-3.658,5.148-5.494l5.104-5.556l5.105-5.553
		c1.694-1.857,3.435-3.676,5.149-5.516c1.731-1.831,3.427-3.678,5.185-5.496c1.818-1.781,3.717-3.426,5.643-5.057
		c1.931-1.625,3.885-3.215,5.888-4.752c1.005-0.765,2.015-1.525,3.063-2.24c1.059-0.717,2.152-1.42,3.457-1.801
		c2.535-0.795,5.223-0.61,7.719-0.055c2.517,0.582,4.896,1.516,7.162,2.778l-0.803,0.369c0.004-0.063-0.028-0.351-0.092-0.543
		c-0.062-0.216-0.153-0.433-0.259-0.647c-0.215-0.428-0.487-0.844-0.801-1.234c-0.309-0.395-0.654-0.769-1.018-1.127l-1.135-1.111
		c-0.38-0.354-0.737-0.791-1.104-1.195c-0.366-0.412-0.685-0.844-1.021-1.27c-0.314-0.441-0.639-0.877-0.925-1.338
		c-0.3-0.459-0.564-0.918-0.832-1.426c-0.038-0.076-0.06-0.158-0.058-0.238v-0.053c0.037-2.074-0.582-4.288-1.737-6.07
		c-0.585-0.896-1.281-1.721-2.103-2.416c-0.412-0.336-0.847-0.68-1.285-0.959c-0.479-0.311-0.957-0.602-1.426-0.832
		c-3.853-1.996-8.521-2.42-12.734-1.367l-0.762,0.218c-0.261,0.097-0.545,0.185-0.783,0.288c-0.479,0.195-0.979,0.426-1.463,0.682
		c-0.974,0.507-1.918,1.09-2.849,1.703c-1.881,1.22-3.616,2.605-5.588,3.863c-2.089,1.193-4.25,1.92-6.475,2.537
		c-2.22,0.601-4.496,1.012-6.821,1.126c-2.313,0.039-4.541,0.06-6.875-0.151c-1.157-0.128-2.354-0.314-3.521-0.879
		c-0.58-0.295-1.132-0.686-1.563-1.248c-0.446-0.621-0.634-1.174-0.836-1.754c-0.707-2.285-0.933-4.549-1.343-6.736
		c-0.1-0.543-0.209-1.082-0.354-1.569c-0.123-0.438-0.397-0.945-0.636-1.404c-0.521-0.97-1.096-1.941-1.662-2.913
		c-1.136-1.959-2.325-3.86-3.319-6.004c-0.262-0.525-0.449-1.201-0.578-1.709c-0.154-0.537-0.275-1.11-0.41-1.669
		c-0.271-1.13-0.496-2.219-0.744-3.329l-1.422-6.623c-0.244-1.092-0.479-2.213-0.754-3.256l-0.215-0.826l-0.195-0.869l-0.33-1.674
		c-0.438-2.188-0.848-4.396-2-6.069c-1.25-1.836-2.591-3.706-3.772-5.673c-1.181-1.972-2.258-4.041-2.953-6.32l-1.892-6.504
		l-3.768-13.005c-0.668-2.135-1.329-4.318-2.229-6.247c-0.112-0.233-0.233-0.459-0.354-0.642c-0.057-0.088-0.121-0.17-0.151-0.2
		c-0.014-0.017-0.018-0.012,0.021,0.01c0.031,0.018,0.17,0.096,0.389,0.063c0.468-0.142,0.389-0.29,0.391-0.22
		c-0.066,0.146-0.1,0.221-0.143,0.338c-0.086,0.23-0.164,0.48-0.239,0.741l-0.237,0.827c-0.104,0.301-0.159,0.586-0.45,1.031
		c-0.08,0.112-0.194,0.249-0.384,0.379c-0.196,0.136-0.512,0.229-0.778,0.193c-0.541-0.083-0.711-0.305-0.883-0.441
		c-0.316-0.305-0.482-0.568-0.658-0.834c-0.094-0.147-0.15-0.232-0.258-0.428l-0.197-0.374c-0.131-0.255-0.271-0.485-0.394-0.762
		c-0.247-0.562-0.5-1.13-0.686-1.675c-0.402-1.101-0.707-2.208-1.043-3.258c-0.164-0.533-0.346-1.037-0.541-1.533l-0.318-0.74
		c-0.143-0.303-0.25-0.641-0.33-0.93c-0.316-1.191-0.468-2.313-0.646-3.434c-0.171-1.115-0.334-2.223-0.564-3.277
		c-0.117-0.521-0.253-1.04-0.431-1.477c-0.087-0.215-0.191-0.411-0.278-0.52c-0.106-0.127-0.084-0.055,0.019-0.053
		c0.058-0.008,0.002-0.016-0.292,0.186c-0.26,0.162-0.404,0.279-0.611,0.438c-0.393,0.311-0.742,0.658-1.043,1.045
		c-0.607,0.771-0.998,1.704-1.336,2.746l-0.139,0.426l-0.02,0.051l-0.051,0.123c-0.041,0.087-0.078,0.154-0.148,0.252
		c-0.066,0.091-0.161,0.203-0.334,0.311c-0.158,0.105-0.422,0.178-0.641,0.158c-0.439-0.05-0.604-0.225-0.732-0.324
		c-0.123-0.111-0.193-0.201-0.266-0.292c-0.129-0.174-0.217-0.327-0.297-0.479c-0.313-0.597-0.506-1.153-0.693-1.724
		c-0.357-1.137-0.621-2.277-0.764-3.479c-0.064-0.605-0.113-1.215-0.026-1.918l0.069-0.428c-0.012,0.029-0.022,0.023,0.037,0.167
		c0.067,0.149,0.287,0.259,0.34,0.248c0.047,0.007,0.006-0.001-0.057,0.019c-0.283,0.076-0.73,0.35-1.087,0.66
		c-0.373,0.316-0.722,0.684-1.028,1.086c-0.621,0.802-1.097,1.723-1.39,2.692c-0.151,0.494-0.241,0.962-0.306,1.509l-0.217,1.68
		c-0.291,2.238-0.601,4.486-0.812,6.69l-0.002,0.013c-0.049,0.514-0.506,0.892-1.021,0.842c-0.342-0.033-0.623-0.246-0.76-0.536
		c-1.021-2.192-1.914-4.395-2.682-6.683c-0.378-1.145-0.721-2.306-0.984-3.502c-0.261-1.199-0.469-2.428-0.425-3.756
		c0.007-0.313,0.062-0.717,0.099-0.977c0.021-0.143,0.022-0.206,0.022-0.278c0.002-0.024-0.009-0.044,0.013,0.028
		c0.006,0.018,0.028,0.096,0.1,0.192c0.074,0.106,0.24,0.244,0.435,0.293c0.376,0.076,0.474-0.046,0.491-0.037
		c0.023-0.015,0.002-0.002-0.021,0.021c-0.056,0.048-0.135,0.125-0.213,0.216c-0.158,0.179-0.32,0.397-0.479,0.618
		c-0.631,0.905-1.199,1.917-1.723,2.938c-1.037,2.049-1.937,4.203-2.488,6.383c-0.266,1.08-0.444,2.201-0.34,3.159
		c0.033,0.284,0.072,0.628,0.086,0.954c0.007,0.345,0.031,0.668-0.084,1.168c-0.032,0.125-0.084,0.284-0.195,0.471
		c-0.104,0.183-0.37,0.475-0.764,0.565c-0.381,0.087-0.662-0.013-0.828-0.083c-0.17-0.076-0.291-0.158-0.391-0.232
		c-0.377-0.299-0.574-0.563-0.787-0.832c-0.785-1.07-1.34-2.125-1.849-3.299c-0.123-0.305-0.241-0.588-0.341-0.998
		c0.021,0.081-0.048-0.184-0.025-0.078c0.02,0.055,0.025,0.064,0.032,0.068c0.013,0.021,0.036,0.036,0.048,0.037
		c0.053-0.021-0.303,0.016-0.587,0.309c-0.612,0.563-1.051,1.594-1.313,2.627c-0.268,1.053-0.396,2.174-0.449,3.305
		c-0.041,1.092-0.023,2.373-0.182,3.615c-0.094,0.635-0.174,1.262-0.48,1.988c-0.166,0.345-0.346,0.799-0.984,1.166
		c-0.312,0.177-0.754,0.225-1.068,0.15c-0.338-0.064-0.561-0.197-0.764-0.324c-0.732-0.531-1.078-1.09-1.438-1.663
		c-0.171-0.289-0.321-0.582-0.459-0.898l-0.177-0.444c-0.032-0.09-0.037-0.075-0.051-0.113l-0.063-0.104
		c-0.075-0.141-0.209-0.191-0.066-0.132c0.066,0.031,0.201-0.005,0.232-0.018c0.04-0.024,0.014-0.005-0.023,0.03
		c-0.184,0.217-0.412,0.722-0.559,1.223c-0.6,2.09-0.801,4.461-0.959,6.771c-0.157,2.33-0.205,4.666-0.23,7.029
		c-0.021,1.195-0.054,2.387-0.146,3.604c-0.053,0.611-0.107,1.219-0.244,1.881c-0.096,0.35-0.102,0.645-0.467,1.213
		c-0.108,0.139-0.283,0.365-0.682,0.496c-0.42,0.133-0.832-0.021-1.01-0.142c-0.379-0.254-0.474-0.441-0.604-0.614
		c-0.422-0.664-0.62-1.218-0.854-1.799c-0.22-0.572-0.414-1.139-0.607-1.703c-0.385-1.121-0.744-2.253-1.158-3.285
		c-0.104-0.252-0.215-0.504-0.319-0.689c-0.043-0.086-0.12-0.176-0.069-0.12c0.029,0.005,0.135,0.188,0.598,0.163
		c0.449-0.09,0.521-0.314,0.543-0.326c0.033-0.066-0.016,0.037-0.033,0.131l-0.068,0.376l-0.152,0.872
		c-0.215,1.185-0.448,2.346-0.686,3.507c-0.916,4.646-2.045,9.185-1.781,13.804c0.004,0.617,0.015,1.201-0.061,1.902
		c-0.023,0.18-0.056,0.378-0.128,0.616c-0.062,0.248-0.328,0.638-0.483,0.759c-0.121,0.119-0.076,0.072-0.113,0.127
		c-0.024,0.047-0.063,0.127-0.094,0.234c-0.078,0.222-0.109,0.291-0.176,0.46c-0.101,0.198-0.226,0.44-0.328,0.571
		c-0.215,0.32-0.445,0.561-0.668,0.801c-0.447,0.459-0.861,0.836-1.19,1.227c-0.665,0.763-0.927,1.56-0.729,2.496
		c0.176,0.895,0.74,1.949,1.242,3.045c0.512,1.104,0.975,2.354,1.072,3.711c0.037,0.666-0.004,1.379-0.137,2.003
		c-0.16,0.729-0.439,1.435-1,2.04c-0.551,0.603-1.256,0.922-1.78,1.162c-0.546,0.243-0.911,0.447-1.116,0.711
		c-0.215,0.261-0.344,0.656-0.396,1.16c-0.035,0.406,0.022,0.801,0.223,1.146c0.195,0.359,0.551,0.723,0.979,1.146
		c0.418,0.424,0.934,0.938,1.266,1.674c0.339,0.736,0.369,1.592,0.229,2.287c-0.048,0.243-0.063,0.295-0.115,0.495
		c-0.053,0.188-0.113,0.364-0.178,0.529c-0.135,0.337-0.311,0.669-0.525,0.972c-0.859,1.252-2.367,1.779-2.684,2.293
		c-0.086,0.119-0.132,0.23-0.154,0.398c-0.024,0.146-0.012,0.419,0.021,0.583c0.072,0.403,0.277,0.817,0.574,1.249
		c0.296,0.435,0.673,0.867,1.059,1.403c0.359,0.515,0.84,1.259,0.762,2.245l-0.022,0.174c-0.004,0.05-0.054,0.247-0.048,0.211
		l-0.061,0.213c-0.064,0.182-0.199,0.504-0.314,0.647c-0.234,0.372-0.53,0.632-0.805,0.856c-0.556,0.434-1.07,0.713-1.396,1.004
		c-0.316,0.279-0.385,0.508-0.376,0.77c0.026,0.277,0.269,0.744,0.573,1.189c0.605,0.926,1.472,1.863,1.929,3.272
		c0.108,0.353,0.177,0.741,0.173,1.141c0.004,0.099-0.009,0.2-0.016,0.3c-0.014,0.168-0.02,0.172-0.033,0.267
		c-0.032,0.198-0.092,0.431-0.161,0.614c-0.272,0.833-1.069,1.455-1.668,1.719c-0.297,0.146-0.578,0.264-0.733,0.357
		c-0.078,0.046-0.115,0.083-0.11,0.08c0.004-0.002,0.028-0.057,0.024-0.061c0.002,0.001-0.002,0.006,0.002,0.028
		c-0.021-0.122,0.021,0.134,0.019,0.092c-0.013-0.044,0.022,0.05,0.051,0.085c0.063,0.102,0.22,0.248,0.417,0.393
		c0.4,0.305,0.949,0.581,1.52,1.098c0.279,0.262,0.58,0.625,0.734,1.107c0.155,0.499,0.133,0.955,0.006,1.409
		c-0.289,0.946-1.035,1.455-1.556,1.784c-0.535,0.324-1.063,0.629-1.166,0.803c-0.024,0.035-0.026,0.047-0.028,0.058
		c-0.004-0.017,0,0.063-0.007-0.02l0.007,0.11c0.004,0.031,0.006-0.005,0.004-0.004c0.006,0.019,0.018,0.075,0.155,0.188
		c0.136,0.109,0.356,0.232,0.626,0.377c0.266,0.162,0.604,0.292,0.991,0.759c0.19,0.23,0.34,0.616,0.33,0.954
		c-0.003,0.182-0.015,0.295-0.07,0.479c-0.03,0.093-0.019,0.095-0.088,0.26c-0.237,0.55-0.515,0.795-0.782,1.051
		c-0.264,0.234-0.504,0.412-0.65,0.553c-0.159,0.159-0.109,0.162-0.117,0.114c-0.001-0.001,0.005,0.003,0.005,0.005
		c-0.009-0.035,0.022,0.09-0.026-0.076l0.035,0.105c0.012,0.029,0.031,0.092,0.021,0.041c-0.051-0.127-0.061-0.076-0.01-0.058
		c0.08,0.063,0.34,0.169,0.64,0.294c0.298,0.13,0.659,0.308,0.985,0.589c0.326,0.278,0.594,0.649,0.758,1.028
		c0.121,0.354,0.345,0.771,0.175,1.455c-0.19,0.66-0.683,0.982-0.995,1.168c-0.667,0.363-1.213,0.516-1.604,0.748
		c-0.188,0.109-0.32,0.221-0.369,0.303c-0.053,0.08-0.077,0.154-0.072,0.312c0,0.073,0.018,0.167,0.038,0.263
		c0.043,0.178,0.053,0.197,0.092,0.299c0.069,0.178,0.151,0.289,0.239,0.361c0.162,0.152,0.539,0.209,1.22,0.259
		c0.175,0.021,0.371,0.043,0.63,0.13c0.247,0.076,0.612,0.294,0.809,0.637c0.054,0.082,0.09,0.163,0.119,0.243
		c0.035,0.082,0.08,0.28,0.067,0.241c0.017,0.082,0.031,0.113,0.043,0.285c0.028,0.316-0.003,0.49-0.024,0.684
		c-0.123,0.729-0.324,1.254-0.428,1.775c-0.105,0.51-0.146,0.973-0.043,1.372c0.479,1.106-0.139,0.579,2.145,0.759
		c0.562,0.156,0.979,0.615,1.166,0.998c0.039,0.074,0.063,0.109,0.111,0.215l0.129,0.33c0.058,0.199,0.106,0.388,0.131,0.572
		c0.105,0.746,0.021,1.369,0.056,1.85c0.019,0.474,0.174,0.729,0.354,0.872c0.037,0.02,0.08,0.046,0.238,0.026
		c0.155-0.018,0.383-0.096,0.633-0.199c0.266-0.1,0.514-0.242,0.979-0.353c0.116-0.025,0.271-0.046,0.45-0.038
		c0.189,0.012,0.429,0.068,0.644,0.213c0.099,0.07,0.2,0.158,0.265,0.24c0.078,0.092,0.18,0.271,0.153,0.236l0.054,0.098
		l0.073,0.182c0.171,0.481,0.19,0.739,0.248,1.066l0.132,0.872c0.084,0.559,0.2,1.072,0.381,1.493
		c0.098,0.194,0.196,0.381,0.318,0.5c0.051,0.05-0.023-0.013,0.018,0.022l0.082,0.07c-0.008-0.021-0.033-0.027-0.021-0.021
		c0.01,0.002,0.013,0.008,0.051,0.01c0.185,0.013,0.709-0.256,1.226-0.555c0.275-0.146,0.565-0.314,0.988-0.438
		c0.211-0.058,0.469-0.106,0.78-0.067c0.312,0.031,0.646,0.193,0.86,0.396l0.203,0.209c0.054,0.057,0.15,0.188,0.217,0.281
		c0.134,0.205,0.218,0.373,0.289,0.559c0.145,0.359,0.217,0.701,0.279,1.002c0.104,0.611,0.256,1.064,0.354,1.082l0.019,0.018
		c-0.104-0.051,0.027,0.017,0.03,0.017c0.039,0.021-0.022-0.019-0.032-0.015c-0.018-0.006-0.007-0.006-0.011-0.004
		c0,0,0.04,0.004,0.108-0.016c0.142-0.031,0.361-0.135,0.586-0.266l0.753-0.449c0.142-0.084,0.295-0.168,0.485-0.252
		c0.192-0.074,0.428-0.186,0.849-0.16c0.114,0.018,0.225,0.035,0.346,0.086c0.166,0.072,0.013,0,0.115,0.047l0.205,0.082
		c0.136,0.057,0.241,0.076,0.362,0.119l0.808,0.24l1.709,0.486c0.573,0.17,1.147,0.34,1.733,0.549l0.463,0.166
		c0.144,0.063,0.252,0.101,0.429,0.188c0.338,0.162,0.606,0.325,0.89,0.515c0.555,0.373,1.053,0.822,1.487,1.352
		c0.431,0.527,0.817,1.146,0.972,1.953c0.041,0.197,0.049,0.412,0.045,0.631c-0.016,0.182-0.014,0.113-0.021,0.184
		c0,0.02-0.021,0.111-0.041,0.189c-0.045,0.176-0.091,0.262-0.138,0.369c-0.192,0.4-0.432,0.676-0.672,0.934
		c-0.486,0.508-1.015,0.887-1.562,1.227c-1.099,0.666-2.28,1.136-3.513,1.431s-2.508,0.403-3.801,0.269
		c-0.563-0.054-1.223-0.164-1.824-0.289c-0.602-0.127-1.188-0.276-1.772-0.437c-2.321-0.66-4.556-1.5-6.763-2.369
		c-2.219-0.892-4.359-1.739-6.596-2.59c-2.201-0.873-4.383-1.754-6.586-2.552c-2.199-0.782-4.436-1.538-6.664-1.916
		c-0.553-0.088-1.105-0.141-1.619-0.131c-0.502,0.019-0.932,0.144-1.323,0.377c-0.778,0.472-1.296,1.457-1.735,2.504
		c-0.451,1.053-0.83,2.216-1.527,3.324c-0.33,0.549-0.865,1.099-1.305,1.463c-0.461,0.404-0.92,0.781-1.382,1.156
		c-1.84,1.493-3.692,2.938-5.372,4.529c-0.828,0.795-1.64,1.637-2.207,2.533c-0.138,0.227-0.261,0.449-0.336,0.668
		c-0.047,0.107-0.063,0.21-0.091,0.313l-0.062,0.418c-0.099,0.604-0.14,1.121-0.168,1.696c-0.063,1.134,0.006,2.362-0.235,3.622
		c-0.077,0.314-0.128,0.602-0.229,0.939c-0.097,0.283-0.168,0.555-0.285,0.85c-0.23,0.604-0.488,1.15-0.717,1.678
		c-0.472,1.049-0.773,2.094-0.895,3.221c-0.077,0.537-0.1,1.172-0.271,1.834c-0.145,0.644-0.521,1.336-0.966,1.804
		c-0.426,0.467-0.758,0.823-1.01,1.289c-0.252,0.457-0.461,0.963-0.603,1.506c-0.287,1.017-0.22,2.069,0.049,3.201
		c0.121,0.571,0.267,1.215,0.222,1.926c-0.035,0.349-0.108,0.715-0.242,1.033c-0.045,0.127-0.121,0.288-0.207,0.457
		c-0.081,0.168-0.171,0.293-0.258,0.438c-0.759,1.088-1.617,1.811-2.009,2.775c-0.209,0.482-0.313,0.975-0.365,1.551
		c-0.051,0.523-0.038,1.072,0.045,1.615c0.063,0.556,0.258,1.086,0.258,1.854c-0.015,0.396-0.13,0.791-0.388,1.16
		c-0.082,0.111-0.177,0.234-0.328,0.389c-0.135,0.135-0.253,0.24-0.377,0.342c-1.011,0.76-1.769,1.357-1.89,2.381
		c-0.074,0.479-0.047,1.068,0.064,1.527c0.12,0.482,0.379,0.895,0.729,1.387c0.349,0.486,0.699,1.097,0.867,1.736
		c0.178,0.658,0.221,1.232,0.315,1.813c0.168,1.143,0.416,2.244,1.287,2.508c0.426,0.166,0.97,0.182,1.515,0.133
		c0.567-0.052,1.071-0.154,1.631-0.32c1.084-0.313,2.133-0.803,3.151-1.34c2.052-1.096,3.91-2.489,5.804-3.92l11.403-8.418
		c3.813-2.789,7.642-5.564,11.498-8.293c1.929-1.367,3.869-2.721,5.826-4.045c1.981-1.289,3.899-2.693,6.104-3.688
		c2.209-0.953,4.682-1.396,7.078-1c1.196,0.188,2.355,0.567,3.438,1.09c1.068,0.528,2.113,1.055,3.182,1.551
		c2.156,0.979,4.283,1.896,6.656,2.188c2.318,0.406,4.65,0.752,6.99,1.084c0.092,0.013,0.156,0.099,0.144,0.19
		c-0.007,0.05-0.04,0.097-0.081,0.121c-1.209,0.777-2.195,2.104-2.193,3.58c-0.015,0.733,0.215,1.44,0.543,2.117
		c0.313,0.678,0.682,1.332,1.18,1.877c0.486,0.556,1.145,0.923,1.859,1.11c0.717,0.183,1.474,0.209,2.225,0.209
		c0.752-0.006,1.51-0.032,2.262-0.071c0.752-0.041,1.504-0.111,2.234-0.279c0.728-0.166,1.433-0.438,2.066-0.836
		c0.641-0.392,1.205-0.896,1.717-1.448c0.51-0.552,0.963-1.158,1.489-1.709c0.518-0.556,1.07-1.076,1.609-1.601
		c0.532-0.53,1.073-1.079,1.375-1.771c0.303-0.691,0.329-1.472,0.221-2.213c-0.111-0.748-0.236-1.494-0.424-2.229
		C144.67,181.164,144.451,180.433,144.102,179.763z M144.102,179.755c0.354,0.67,0.58,1.4,0.768,2.131
		c0.195,0.732,0.326,1.479,0.447,2.225c0.117,0.748,0.096,1.537-0.203,2.246c-0.301,0.707-0.844,1.27-1.373,1.805
		c-0.539,0.531-1.084,1.057-1.594,1.611c-0.517,0.549-0.964,1.161-1.476,1.725c-0.51,0.563-1.082,1.078-1.729,1.486
		c-0.646,0.41-1.364,0.699-2.108,0.875c-0.742,0.18-1.504,0.256-2.26,0.307c-0.759,0.045-1.513,0.08-2.272,0.094
		c-0.759,0.007-1.528-0.01-2.283-0.192c-0.749-0.187-1.47-0.582-1.985-1.164c-0.531-0.569-0.918-1.25-1.244-1.937
		c-0.338-0.678-0.6-1.444-0.59-2.233c-0.008-0.789,0.254-1.565,0.674-2.226c0.428-0.658,0.981-1.213,1.646-1.646l0.063,0.313
		c-2.34-0.311-4.688-0.633-7.021-1.022l-1.743-0.313c-0.597-0.145-1.165-0.307-1.729-0.504c-1.123-0.395-2.219-0.854-3.301-1.34
		c-2.179-0.943-4.19-2.26-6.504-2.539c-2.285-0.355-4.646,0.09-6.75,1.021c-2.104,0.969-4.018,2.387-5.976,3.688
		c-1.938,1.344-3.862,2.707-5.774,4.094c-3.828,2.763-7.625,5.57-11.41,8.394l-11.319,8.521c-1.865,1.427-3.789,2.889-5.908,4.033
		c-1.063,0.565-2.162,1.092-3.351,1.438c-0.57,0.181-1.23,0.312-1.838,0.369c-0.623,0.052-1.295,0.062-1.981-0.188
		c-0.343-0.113-0.667-0.336-0.938-0.597c-0.252-0.274-0.461-0.588-0.586-0.903c-0.273-0.636-0.363-1.252-0.466-1.845
		c-0.097-0.588-0.157-1.194-0.296-1.677c-0.139-0.506-0.384-0.938-0.72-1.407c-0.337-0.463-0.734-1.063-0.899-1.735
		c-0.162-0.688-0.188-1.298-0.097-1.984c0.094-0.678,0.405-1.365,0.868-1.869c0.447-0.521,0.988-0.871,1.402-1.221
		c0.104-0.084,0.205-0.178,0.278-0.254c0.06-0.053,0.147-0.16,0.24-0.287c0.073-0.119,0.149-0.31,0.147-0.504
		c0.012-0.418-0.168-1.027-0.254-1.646c-0.099-0.623-0.121-1.267-0.061-1.916c0.048-0.597,0.184-1.278,0.445-1.883
		c0.518-1.25,1.523-2.114,2.09-2.976c0.273-0.42,0.476-0.91,0.505-1.356c0.026-0.476-0.077-1-0.206-1.58
		c-0.284-1.153-0.413-2.531-0.047-3.802c0.154-0.603,0.392-1.2,0.705-1.776c0.307-0.58,0.785-1.103,1.152-1.506
		c0.729-0.746,0.779-1.699,0.914-2.955c0.119-1.228,0.477-2.478,0.973-3.582c0.24-0.563,0.48-1.086,0.67-1.584
		c0.102-0.252,0.184-0.556,0.275-0.83c0.064-0.228,0.121-0.521,0.184-0.778c0.205-1.068,0.142-2.221,0.197-3.441
		c0.024-0.604,0.082-1.264,0.17-1.826l0.064-0.461c0.042-0.184,0.083-0.373,0.148-0.537c0.119-0.342,0.279-0.635,0.449-0.918
		c0.692-1.102,1.547-1.971,2.412-2.816c1.742-1.666,3.611-3.139,5.43-4.631c0.453-0.371,0.906-0.748,1.33-1.125
		c0.461-0.396,0.754-0.707,1.043-1.17c0.563-0.895,0.934-2,1.397-3.117c0.472-1.094,1.03-2.373,2.293-3.188
		c0.616-0.385,1.358-0.584,2.038-0.605c0.667-0.017,1.293,0.045,1.907,0.137c2.437,0.402,4.698,1.166,6.948,1.951
		c2.244,0.797,4.449,1.674,6.643,2.531c2.184,0.817,4.438,1.698,6.607,2.557c2.189,0.852,4.391,1.66,6.617,2.279
		c0.557,0.146,1.112,0.289,1.67,0.402c0.553,0.109,1.062,0.199,1.672,0.256c1.057,0.107,2.17,0.012,3.229-0.25
		c1.065-0.26,2.101-0.68,3.021-1.246c0.453-0.281,0.89-0.604,1.222-0.953c0.163-0.17,0.306-0.355,0.366-0.492
		c0.011-0.024,0.031-0.072,0.021-0.041c-0.004,0.086,0.025-0.146,0.018-0.063c-0.004-0.078,0-0.156-0.021-0.248
		c-0.143-0.753-0.91-1.634-1.744-2.189c-0.768-0.554-1.938-0.849-3.039-1.188l-1.699-0.48l-0.891-0.268
		c-0.158-0.055-0.341-0.104-0.479-0.162l-0.205-0.082c0.035,0.021-0.188-0.082-0.09-0.033c0.054,0.02,0.09,0.029,0.131,0.029
		c0.125,0.007,0.068-0.01-0.008,0.031c-0.08,0.031-0.188,0.092-0.299,0.154l-0.767,0.461c-0.289,0.162-0.599,0.334-1.032,0.445
		c-0.218,0.051-0.476,0.086-0.77,0.043c-0.078-0.017-0.141-0.025-0.227-0.052c-0.078-0.022-0.213-0.077-0.24-0.094
		c-0.063-0.033-0.002,0.008-0.164-0.089l-0.16-0.112c-0.434-0.324-0.658-0.793-0.77-1.146c-0.119-0.367-0.17-0.681-0.23-0.957
		c-0.055-0.276-0.114-0.517-0.189-0.703c-0.033-0.092-0.088-0.186-0.115-0.229c-0.021-0.021,0.002-0.019-0.045-0.069l-0.076-0.082
		c-0.004-0.004-0.102-0.103-0.026-0.027c-0.002,0.002,0.054,0.031,0.069,0.029c0.019,0-0.021,0-0.094,0.021
		c-0.146,0.039-0.379,0.156-0.621,0.291c-0.513,0.249-1.008,0.689-2.023,0.771c-0.258,0.008-0.551-0.045-0.811-0.166
		c-0.121-0.051-0.268-0.146-0.397-0.248l-0.084-0.073c-0.017-0.011-0.138-0.134-0.136-0.138c-0.295-0.305-0.479-0.646-0.639-0.979
		c-0.287-0.666-0.416-1.317-0.515-1.924l-0.134-0.881c-0.034-0.255-0.109-0.584-0.135-0.66c-0.002-0.008,0.006-0.007,0-0.025
		l-0.053-0.098c-0.059-0.103,0.01,0.012,0.036,0.049c0.022,0.021,0.062,0.066,0.103,0.09c0.209,0.125,0.303,0.066,0.236,0.086
		c-0.109,0.02-0.396,0.143-0.679,0.261c-0.295,0.118-0.625,0.254-1.058,0.315c-0.422,0.066-1.002,0.004-1.457-0.313
		c-0.803-0.551-1.096-1.516-1.115-2.211c-0.032-0.698,0.031-1.264-0.043-1.689c-0.01-0.109-0.041-0.205-0.063-0.29
		c-0.012-0.027-0.021-0.056-0.027-0.085c-0.008-0.031-0.063-0.121-0.092-0.179c-0.076-0.14-0.104-0.138-0.119-0.144
		c-0.031-0.018-0.23-0.02-0.529,0.021c-0.295,0.029-0.713,0.1-1.232-0.051c-0.535-0.152-0.945-0.565-1.162-0.932
		c-0.207-0.349-0.353-0.705-0.436-1.079c-0.359-1.53,0.298-2.903,0.438-3.806c0.016-0.099,0.018-0.219,0.021-0.198
		c0.018,0.022-0.01-0.088-0.021-0.152c-0.024-0.11,0.008,0.015,0.01,0.029l0.023,0.045c0.049,0.083,0.146,0.13,0.116,0.114
		c-0.021-0.008-0.116-0.029-0.235-0.041c-0.475-0.06-1.367-0.021-2.146-0.643c-0.373-0.302-0.622-0.701-0.768-1.072
		c-0.074-0.171-0.147-0.436-0.17-0.547c-0.045-0.189-0.082-0.39-0.089-0.611c-0.026-0.43,0.087-0.963,0.37-1.369
		c0.277-0.415,0.639-0.663,0.953-0.852c0.635-0.359,1.238-0.538,1.604-0.752c0.187-0.105,0.207-0.18,0.168-0.105
		c0.008,0.102-0.012-0.072-0.09-0.26c-0.154-0.318-0.328-0.479-0.818-0.689c-0.239-0.111-0.547-0.197-0.955-0.469
		c-0.196-0.141-0.413-0.313-0.606-0.697c-0.056-0.109-0.053-0.121-0.067-0.159l-0.037-0.104c-0.068-0.236-0.039-0.186-0.061-0.295
		c-0.008-0.071-0.021-0.139-0.021-0.214c-0.01-0.649,0.396-1.179,0.664-1.418c0.281-0.267,0.52-0.438,0.695-0.599
		c0.092-0.08,0.16-0.152,0.211-0.217c0.057-0.061,0.09-0.139,0.086-0.117c0.004,0.036,0.039-0.111,0.055-0.158
		c-0.008,0.044-0.002,0.009-0.006,0.043c-0.004,0.041,0.035,0.135,0.041,0.135c0.018,0-0.186-0.15-0.43-0.275
		c-0.248-0.139-0.555-0.289-0.884-0.547c-0.323-0.248-0.698-0.686-0.806-1.254c-0.012-0.072-0.028-0.181-0.031-0.223l-0.007-0.11
		c-0.003-0.231,0.009-0.299,0.038-0.46c0.056-0.277,0.183-0.54,0.328-0.742c2.781-2.22,3.469-2.034,0.85-3.692
		c-0.273-0.206-0.579-0.448-0.846-0.837c-0.133-0.21-0.236-0.385-0.319-0.715c-0.035-0.185-0.024-0.074-0.056-0.345
		c-0.01-0.124-0.006-0.268,0.013-0.413c0.035-0.297,0.187-0.633,0.382-0.857c0.194-0.23,0.398-0.368,0.573-0.474
		c0.354-0.206,0.625-0.308,0.854-0.425c0.463-0.233,0.652-0.416,0.77-0.723c0.033-0.094,0.046-0.147,0.064-0.24
		c0.006-0.053,0.028-0.193,0.021-0.173c0-0.048,0.01-0.094,0.007-0.142c0.001-0.191-0.032-0.392-0.097-0.604
		c-0.262-0.867-0.998-1.752-1.701-2.777c-0.338-0.53-0.743-1.104-0.877-2.007c-0.044-0.497,0.027-0.909,0.218-1.347
		c0.193-0.416,0.479-0.756,0.763-1.004c0.565-0.486,1.104-0.769,1.471-1.07c0.182-0.148,0.332-0.289,0.408-0.422
		c0.063-0.092,0.031-0.055,0.084-0.141l0.061-0.213c0.027-0.107,0,0.02,0.002-0.005l0.008-0.046
		c0.029-0.217-0.117-0.578-0.433-1.009c-0.302-0.425-0.703-0.886-1.075-1.426c-0.37-0.536-0.729-1.191-0.871-1.955
		c-0.072-0.416-0.09-0.739-0.037-1.18c0.049-0.417,0.221-0.874,0.485-1.231c0.546-0.721,1.167-1.015,1.61-1.331
		c0.461-0.305,0.808-0.595,1.058-0.952c0.125-0.178,0.228-0.371,0.313-0.582c0.043-0.11,0.078-0.214,0.104-0.31
		c0.025-0.083,0.082-0.319,0.087-0.367c0.085-0.458,0.056-0.838-0.099-1.182c-0.153-0.35-0.473-0.708-0.885-1.116
		c-0.404-0.408-0.91-0.879-1.291-1.558c-0.394-0.685-0.531-1.509-0.449-2.274c0.07-0.661,0.26-1.458,0.795-2.123
		c0.539-0.674,1.275-1.006,1.795-1.244c0.543-0.246,0.936-0.451,1.186-0.732c0.254-0.26,0.43-0.691,0.525-1.108
		c0.111-0.534,0.126-1.009,0.105-1.521c-0.076-1.009-0.432-2.017-0.912-3.05c-0.463-1.05-1.09-2.078-1.396-3.509
		c-0.026-0.186-0.071-0.424-0.075-0.566l-0.011-0.221l-0.005-0.111c0,0.021-0.006-0.15,0.002-0.188
		c0.02-0.369,0.076-0.738,0.182-1.104c0.215-0.728,0.625-1.362,1.059-1.871c0.881-1.028,1.828-1.676,2.002-2.432
		c0.057-0.176,0.133-0.369,0.25-0.58c0.104-0.207,0.351-0.473,0.445-0.555c0.064-0.075-0.039,0.059-0.008,0.025
		c0.012-0.045,0.029-0.139,0.045-0.252c0.051-0.473,0.051-1.072,0.041-1.636c-0.031-1.132-0.068-2.419,0.033-3.626
		c0.09-1.217,0.241-2.414,0.432-3.598c0.373-2.369,0.865-4.691,1.334-7.002c0.231-1.154,0.463-2.309,0.668-3.449l0.147-0.873
		c0.024-0.136,0.052-0.305,0.097-0.494c0.051-0.191,0.082-0.377,0.266-0.699c0.097-0.135,0.275-0.484,0.873-0.598
		c0.295-0.039,0.523,0.043,0.678,0.118c0.146,0.075,0.245,0.157,0.313,0.219c0.265,0.26,0.344,0.425,0.449,0.595
		c0.184,0.328,0.307,0.62,0.43,0.914c0.467,1.159,0.82,2.281,1.205,3.393c0.189,0.553,0.383,1.103,0.586,1.632
		c0.199,0.515,0.432,1.072,0.648,1.402c0.035,0.069,0.122,0.124-0.006,0.03c-0.055-0.043-0.313-0.148-0.588-0.063
		c-0.258,0.087-0.32,0.204-0.342,0.224c-0.034,0.074,0.088-0.223,0.121-0.445c0.101-0.495,0.16-1.066,0.205-1.631
		c0.088-1.139,0.119-2.309,0.137-3.475c0.023-2.359,0.066-4.749,0.223-7.133c0.18-2.392,0.355-4.768,1.059-7.227
		c0.205-0.621,0.399-1.248,0.969-1.951c0.166-0.177,0.357-0.363,0.668-0.512c0.293-0.156,0.742-0.203,1.094-0.109
		c0.725,0.217,1.01,0.641,1.252,0.984c0.061,0.093,0.107,0.181,0.16,0.278c0.047,0.097,0.113,0.241,0.131,0.29l0.148,0.381
		c0.097,0.225,0.217,0.458,0.346,0.678c0.248,0.431,0.595,0.867,0.83,1.025c0.045,0.027,0.086,0.045,0.041,0.027
		c-0.028-0.009-0.157,0.005-0.211,0.034c-0.113,0.085,0.02-0.011,0.082-0.199c0.162-0.362,0.264-0.919,0.334-1.448
		c0.145-1.104,0.129-2.191,0.176-3.459c0.061-1.227,0.199-2.464,0.516-3.701c0.34-1.225,0.775-2.507,1.897-3.584
		c0.288-0.26,0.631-0.504,1.067-0.663c0.43-0.157,0.988-0.231,1.563-0.004c0.282,0.116,0.552,0.311,0.748,0.562
		c0.093,0.123,0.183,0.256,0.259,0.448c0.088,0.237,0.045,0.12,0.105,0.343c0.037,0.165,0.135,0.434,0.236,0.676
		c0.422,0.994,0.981,2.039,1.596,2.873c0.148,0.197,0.328,0.396,0.416,0.462c0.021,0.016,0.023,0.013-0.014-0.003
		c-0.031-0.01-0.16-0.074-0.396-0.021c-0.245,0.057-0.396,0.238-0.426,0.295c-0.039,0.059-0.035,0.08-0.032,0.061
		c0.022-0.074,0.038-0.35,0.024-0.594c-0.013-0.264-0.037-0.508-0.072-0.81c-0.141-1.4,0.101-2.646,0.39-3.853
		c0.616-2.4,1.56-4.631,2.653-6.791c0.557-1.078,1.146-2.132,1.867-3.165c0.186-0.259,0.375-0.515,0.606-0.779
		c0.116-0.132,0.244-0.267,0.412-0.411c0.088-0.072,0.187-0.15,0.338-0.236c0.144-0.063,0.394-0.24,0.912-0.131
		c0.269,0.063,0.491,0.254,0.608,0.416c0.113,0.159,0.168,0.303,0.191,0.394c0.061,0.214,0.063,0.343,0.066,0.466
		c0.007,0.223-0.02,0.455-0.043,0.604c-0.045,0.324-0.071,0.506-0.082,0.784c-0.049,2.104,0.605,4.403,1.306,6.582
		c0.728,2.192,1.608,4.376,2.58,6.467l-1.78,0.317c0.225-2.291,0.537-4.517,0.828-6.757l0.221-1.679
		c0.067-0.574,0.188-1.222,0.373-1.807c0.36-1.191,0.939-2.309,1.703-3.293c0.381-0.492,0.811-0.949,1.301-1.363
		c0.504-0.408,1.012-0.796,1.815-1.033c0.209-0.053,0.453-0.1,0.78-0.059c0.332,0.029,0.82,0.289,1.02,0.691
		c0.209,0.392,0.188,0.685,0.17,0.992l-0.066,0.406c-0.055,0.419-0.029,0.947,0.027,1.462c0.121,1.041,0.365,2.112,0.684,3.128
		c0.162,0.504,0.35,1.014,0.563,1.42c0.053,0.098,0.107,0.188,0.146,0.24c0.018,0.021,0.035,0.041,0.02,0.023
		c-0.025-0.008-0.066-0.098-0.363-0.135c-0.148-0.019-0.338,0.043-0.439,0.106c-0.111,0.071-0.154,0.13-0.184,0.165
		c-0.029,0.041-0.029,0.046-0.041,0.068c-0.004,0.009-0.008,0.021-0.01,0.027l0.018-0.05l0.123-0.38
		c0.357-1.1,0.84-2.291,1.639-3.301c0.395-0.504,0.854-0.955,1.348-1.345c0.237-0.188,0.545-0.412,0.766-0.546
		c0.174-0.1,0.605-0.459,1.241-0.473c0.316-0.01,0.656,0.096,0.896,0.248c0.244,0.153,0.41,0.331,0.543,0.498
		c0.262,0.338,0.406,0.654,0.535,0.96c0.245,0.612,0.389,1.192,0.52,1.771c0.25,1.152,0.412,2.281,0.584,3.398
		c0.17,1.107,0.328,2.229,0.594,3.223c0.072,0.254,0.137,0.456,0.232,0.665l0.35,0.814c0.222,0.554,0.418,1.115,0.584,1.661
		c0.353,1.102,0.646,2.175,1.019,3.195c0.178,0.526,0.391,0.988,0.59,1.463c0.104,0.24,0.256,0.498,0.381,0.744l0.197,0.375
		l0.182,0.298c0.129,0.206,0.283,0.414,0.377,0.499c0.033,0.053,0.097,0.023-0.158-0.031c-0.127-0.016-0.301,0.031-0.379,0.094
		c-0.073,0.049-0.092,0.08-0.09,0.076c0.025-0.025,0.135-0.29,0.203-0.524l0.23-0.8c0.082-0.28,0.172-0.57,0.28-0.869
		c0.058-0.146,0.138-0.333,0.188-0.443c0.052-0.107,0.113-0.234,0.238-0.387c0.11-0.141,0.352-0.357,0.715-0.417
		c0.356-0.055,0.643,0.071,0.793,0.162c0.157,0.097,0.264,0.192,0.346,0.276c0.168,0.172,0.27,0.32,0.365,0.468
		c0.188,0.29,0.332,0.565,0.469,0.841c1.002,2.172,1.635,4.334,2.313,6.506l3.75,13.029l1.881,6.509
		c0.62,2.05,1.635,4.024,2.768,5.925c1.144,1.908,2.435,3.713,3.724,5.611c0.711,1.006,1.152,2.201,1.479,3.315
		c0.323,1.132,0.553,2.265,0.766,3.378l0.32,1.65l0.174,0.783l0.207,0.815c0.295,1.142,0.517,2.233,0.758,3.347l1.39,6.632
		l0.717,3.286c0.129,0.539,0.232,1.072,0.391,1.621c0.148,0.586,0.257,1.005,0.494,1.498c0.895,1.961,2.088,3.91,3.207,5.861
		c0.567,0.979,1.14,1.956,1.681,2.979c0.274,0.545,0.549,1.035,0.739,1.686c0.172,0.597,0.283,1.167,0.386,1.734
		c0.402,2.25,0.633,4.508,1.258,6.551c0.153,0.484,0.371,1.006,0.588,1.305c0.25,0.337,0.635,0.629,1.059,0.845
		c0.871,0.431,1.939,0.628,3.018,0.747c2.164,0.21,4.466,0.206,6.664,0.18c2.186-0.096,4.383-0.477,6.521-1.045
		c2.125-0.57,4.281-1.307,6.125-2.35c1.843-1.16,3.658-2.583,5.572-3.814c0.959-0.623,1.941-1.223,2.975-1.756
		c0.517-0.268,1.041-0.51,1.611-0.737c0.28-0.116,0.536-0.192,0.807-0.291c0.318-0.094,0.574-0.171,0.867-0.245
		c4.539-1.1,9.447-0.639,13.625,1.543c0.541,0.273,1.023,0.574,1.492,0.881c0.51,0.328,0.963,0.693,1.422,1.07
		c0.9,0.772,1.673,1.689,2.314,2.688c1.27,2.021,1.939,4.344,1.885,6.783l-0.056-0.291c0.222,0.429,0.481,0.888,0.763,1.316
		c0.267,0.439,0.574,0.855,0.869,1.278c0.317,0.404,0.625,0.827,0.961,1.209c0.344,0.38,0.649,0.771,1.041,1.14l1.127,1.117
		c0.387,0.387,0.76,0.795,1.1,1.234c0.346,0.436,0.658,0.91,0.914,1.429c0.127,0.261,0.242,0.532,0.322,0.827
		c0.078,0.314,0.156,0.555,0.115,1.02c-0.026,0.279-0.274,0.486-0.554,0.461c-0.071-0.008-0.142-0.029-0.201-0.063l-0.049-0.028
		c-2.117-1.193-4.461-2.132-6.846-2.691c-2.38-0.546-4.896-0.71-7.193-0.005c-1.129,0.311-2.193,0.961-3.215,1.646
		c-1.033,0.688-2.041,1.434-3.045,2.182c-2,1.508-3.964,3.072-5.896,4.67c-1.929,1.602-3.847,3.236-5.638,4.957
		c-1.754,1.781-3.478,3.623-5.217,5.432c-1.732,1.822-3.486,3.621-5.199,5.463l-5.155,5.506l-5.155,5.506
		c-1.732,1.822-3.398,3.701-5.217,5.463c-3.654,3.494-7.813,6.416-12.186,8.91c-4.388,2.48-8.992,4.564-13.758,6.191
		c-1.193,0.4-2.393,0.783-3.621,1.074c-1.239,0.229-2.479,0.436-3.724,0.629c-2.486,0.371-4.979,0.723-7.471,1.053l0.006-0.002
		L144.102,179.755z"/>
</g>
</svg>
