<?xml version="1.0" encoding="utf-8"?>
<!-- Generator: Adobe Illustrator 16.0.0, SVG Export Plug-In . SVG Version: 6.00 Build 0)  -->
<!DOCTYPE svg PUBLIC "-//W3C//DTD SVG 1.0//EN" "http://www.w3.org/TR/2001/REC-SVG-20010904/DTD/svg10.dtd">
<svg version="1.0" id="Layer_1" xmlns="http://www.w3.org/2000/svg" xmlns:xlink="http://www.w3.org/1999/xlink" x="0px" y="0px"
	 width="1757.48px" height="76.54px" viewBox="0 0 1757.48 76.54" enable-background="new 0 0 1757.48 76.54" xml:space="preserve">
<linearGradient id="SVGID_1_" gradientUnits="userSpaceOnUse" x1="-201.2017" y1="1306.4165" x2="-201.2017" y2="1172.7551" gradientTransform="matrix(1 0 0 1 1283.9512 -1086.6094)">
	<stop  offset="0.6748" style="stop-color:#FFFFFF;stop-opacity:0"/>
	<stop  offset="0.9559" style="stop-color:#FFFFFF;stop-opacity:0"/>
	<stop  offset="1" style="stop-color:#020202"/>
</linearGradient>
<rect x="-153.193" y="-5.407" fill="url(#SVGID_1_)" width="2471.884" height="102.729"/>
<path fill="#FFFFFF" d="M402.265,69.827c-6.803,0-9.154-8.009-9.439-8.943l-0.601-2.33c2.466-0.244,4.856-0.584,7.083-1.039
	c10.517-2.178,15.849-6.895,15.849-14.03c0-3.839-1.143-7.218-4.004-9.263c-6.364-4.551-15.961-3.943-18.799-3.943h-7.964
	l-6.067-21.899l-3.031,4.847c-0.061,0.1-4.133,6.596-11.265,17.053h-515.97v5.03h512.512c-3.044,4.395-6.505,9.302-10.335,14.597
	c-1.09,1.511-2.143,2.935-3.157,4.271h-13.983c-4.384,0-8.083,2.367-9.892,6.328c-1.771,3.881-1.226,8.338,1.389,11.354
	c1.726,1.992,3.729,3.002,5.955,3.002c0.111,0,0.22-0.002,0.331-0.008c4.686-0.207,10.29-4.834,18.688-15.645h22.705
	c4.572,0.006,9.744,0.006,14.841-0.271l0.724,2.612c1.298,4.783,4.08,13.31,14.432,13.31H2319.73v-5.03H402.265V69.827z
	 M330.656,69.822c-0.563,0.013-1.261-0.108-2.262-1.262c-1.329-1.537-1.57-3.877-0.614-5.974c0.466-1.016,1.915-3.385,5.317-3.385
	h10.022C337.406,66.143,333.229,69.708,330.656,69.822z M376.504,20.649l2.668,9.626h-9.064
	C372.777,26.328,374.93,23.064,376.504,20.649z M372.272,54.172h-18.921c0.317-0.43,0.638-0.869,0.962-1.318
	c4.704-6.502,8.858-12.432,12.37-17.546h13.883l5.168,18.659C381.119,54.178,376.438,54.178,372.272,54.172z M385.786,35.307
	l6.734,0.001l0.35-0.026c3.76,0,11.03-0.374,14.988,2.733c1.591,1.249,2.27,3.118,2.27,5.467c0,2.856-1.226,6.907-11.836,9.101
	c-2.302,0.478-4.817,0.81-7.43,1.045L385.786,35.307z"/>
</svg>
